<svg xmlns="http://www.w3.org/2000/svg" viewBox="0 0 800 420" role="img" aria-label="Meetup de fundadores em sala com vista urbana">
  <defs>
    <linearGradient id="room" x1="0" x2="1" y1="0" y2="1">
      <stop offset="0" stop-color="#eef4f5"/>
      <stop offset=".7" stop-color="#ffffff"/>
      <stop offset="1" stop-color="#c4d4d7"/>
    </linearGradient>
  </defs>
  <rect width="800" height="420" fill="url(#room)"/>
  <g stroke="#aab8bf" stroke-width="5">
    <path d="M90 0v280M230 0v280M370 0v280M510 0v280M650 0v280M0 82h800M0 178h800"/>
  </g>
  <g fill="#d8e1e4">
    <rect x="120" y="126" width="42" height="116"/><rect x="178" y="96" width="52" height="146"/><rect x="270" y="150" width="68" height="92"/><rect x="560" y="102" width="64" height="140"/>
  </g>
  <path d="M0 282h800v138H0z" fill="#f0f2f1"/>
  <ellipse cx="400" cy="330" rx="210" ry="54" fill="#d1c1a3"/>
  <ellipse cx="400" cy="310" rx="210" ry="54" fill="#ead9b8"/>
  <g fill="#1f2937">
    <circle cx="230" cy="245" r="15"/><rect x="219" y="260" width="22" height="70" rx="9"/>
    <circle cx="310" cy="235" r="15"/><rect x="299" y="250" width="22" height="80" rx="9"/>
    <circle cx="410" cy="238" r="15"/><rect x="399" y="253" width="22" height="78" rx="9"/>
    <circle cx="504" cy="245" r="15"/><rect x="493" y="260" width="22" height="70" rx="9"/>
    <circle cx="584" cy="254" r="15"/><rect x="573" y="269" width="22" height="58" rx="9"/>
  </g>
</svg>
